<?xml version="1.0" encoding="utf-8"?><svg viewBox="0 0 40 40" xmlns="http://www.w3.org/2000/svg" xmlns:xlink="http://www.w3.org/1999/xlink"><style>:root>svg{display:none}:root>svg:target{display:block}</style><svg fill="none" viewBox="0 0 20 20" id="fb" xmlns="http://www.w3.org/2000/svg"><path d="M10 19.333A9.333 9.333 0 1110 .667a9.333 9.333 0 010 18.666zm0 0V8.667A2.667 2.667 0 0112.666 6h.667m-6.667 5.333h6.667" stroke="#000"/></svg><svg fill="none" viewBox="0 0 40 40" id="france" xmlns="http://www.w3.org/2000/svg"><g clip-path="url(#bclip0_5503_2476)"><path d="M20 40c11.046 0 20-8.954 20-20S31.046 0 20 0 0 8.954 0 20s8.954 20 20 20z" fill="#F0F0F0"/><path d="M40 20c0-8.6-5.427-15.93-13.044-18.756v37.512C34.573 35.93 40 28.6 40 20z" fill="#D80027"/><path d="M0 20c0 8.6 5.428 15.93 13.043 18.756V1.244C5.428 4.07 0 11.401 0 20z" fill="#0052B4"/></g><defs><clipPath id="bclip0_5503_2476"><path fill="#fff" d="M0 0h40v40H0z"/></clipPath></defs></svg><svg fill="none" viewBox="0 0 40 40" id="ger" xmlns="http://www.w3.org/2000/svg"><g clip-path="url(#cclip0_5503_2489)"><path d="M1.244 26.956C4.07 34.572 11.401 40 20 40c8.6 0 15.93-5.428 18.756-13.044L20 25.217l-18.756 1.74z" fill="#FFDA44"/><path d="M20 0C11.4 0 4.07 5.428 1.244 13.043L20 14.784l18.756-1.74C35.93 5.428 28.6 0 20 0z" fill="#000"/><path d="M1.244 13.043A19.957 19.957 0 000 20c0 2.446.44 4.79 1.244 6.956h37.512A19.957 19.957 0 0040 20c0-2.447-.44-4.79-1.244-6.957H1.244z" fill="#D80027"/></g><defs><clipPath id="cclip0_5503_2489"><path fill="#fff" d="M0 0h40v40H0z"/></clipPath></defs></svg><svg fill="none" viewBox="0 0 20 20" id="inst" xmlns="http://www.w3.org/2000/svg"><path d="M14.666 4.667H16m-10-4h8A5.333 5.333 0 0119.333 6v8A5.333 5.333 0 0114 19.333H6A5.333 5.333 0 01.667 14V6A5.333 5.333 0 016 .667zM10 14a4 4 0 110-8 4 4 0 010 8z" stroke="#000"/></svg><svg fill="none" viewBox="0 0 20 20" id="phone" xmlns="http://www.w3.org/2000/svg"><path d="M13.708.667h2.96a2.667 2.667 0 012.666 2.666V6c0 7.364-5.97 13.333-13.333 13.333H3.334a2.667 2.667 0 01-2.667-2.666v-1.843c0-.505.286-.967.737-1.193l3.222-1.61a1.333 1.333 0 011.86.77l.398 1.192a1.613 1.613 0 001.846 1.071 8.063 8.063 0 006.325-6.325c.16-.797-.3-1.589-1.072-1.846l-1.478-.493a1.333 1.333 0 01-.872-1.588l.782-3.126a1.333 1.333 0 011.293-1.01z" stroke="#000"/></svg><svg fill="none" viewBox="0 0 40 40" id="spain" xmlns="http://www.w3.org/2000/svg"><path d="M0 20c0 2.446.44 4.79 1.244 6.956L20 28.696l18.756-1.74A19.957 19.957 0 0040 20c0-2.447-.44-4.79-1.244-6.957L20 11.304l-18.756 1.74A19.957 19.957 0 000 20z" fill="#FFDA44"/><path d="M38.756 13.043C35.93 5.428 28.6 0 20 0 11.4 0 4.07 5.428 1.244 13.043h37.512zM1.244 26.956C4.07 34.572 11.401 40 20 40c8.6 0 15.93-5.428 18.756-13.044H1.244z" fill="#D80027"/></svg><svg fill="none" viewBox="0 0 40 40" id="uk" xmlns="http://www.w3.org/2000/svg"><path d="M20 40c11.046 0 20-8.954 20-20S31.046 0 20 0 0 8.954 0 20s8.954 20 20 20z" fill="#F0F0F0"/><path d="M4.134 7.824A19.927 19.927 0 00.69 14.783h10.405l-6.96-6.96zM39.311 14.783a19.927 19.927 0 00-3.445-6.96l-6.96 6.96h10.405zM.689 25.218a19.93 19.93 0 003.445 6.958l6.96-6.959H.688zM32.176 4.134A19.927 19.927 0 0025.217.69v10.404l6.96-6.959zM7.823 35.865a19.93 19.93 0 006.96 3.446V28.907l-6.96 6.958zM14.782.689a19.93 19.93 0 00-6.959 3.445l6.96 6.96V.688zM25.217 39.311a19.93 19.93 0 006.96-3.445l-6.96-6.96v10.405zM28.907 25.218l6.959 6.959a19.926 19.926 0 003.445-6.96H28.907z" fill="#0052B4"/><path d="M39.83 17.391H22.61V.17a20.198 20.198 0 00-5.218 0v17.222H.17a20.198 20.198 0 000 5.218h17.222V39.83a20.191 20.191 0 005.218 0V22.609H39.83a20.191 20.191 0 000-5.218z" fill="#D80027"/><path d="M25.217 25.218l8.925 8.924c.41-.41.802-.84 1.176-1.284l-7.641-7.64h-2.46zM14.782 25.218l-8.925 8.924c.41.41.84.802 1.284 1.176l7.641-7.641v-2.46zM14.783 14.783L5.858 5.858c-.41.41-.802.84-1.175 1.284l7.64 7.64h2.46zM25.217 14.783l8.925-8.925c-.41-.41-.84-.802-1.284-1.176l-7.64 7.641v2.46z" fill="#D80027"/></svg><svg fill="none" viewBox="0 0 13 7" id="vk" xmlns="http://www.w3.org/2000/svg"><mask id="ha" maskUnits="userSpaceOnUse" x="0" y="-.649" width="13" height="8" fill="#000"><path fill="#fff" d="M0-.649h13v8H0z"/><path d="M11.511 5.18c-.239-.28-.51-.532-.77-.775a25.222 25.222 0 01-.28-.262c-.122-.118-.183-.201-.189-.263-.006-.061.036-.151.133-.284.146-.2.3-.401.45-.596.134-.172.272-.35.404-.53l.03-.04c.257-.35.524-.713.667-1.154.04-.126.083-.314-.02-.478-.102-.164-.291-.213-.425-.235a1.092 1.092 0 00-.184-.012L9.655.549c-.289-.005-.49.13-.599.4-.087.216-.19.466-.31.703-.229.458-.52.985-.941 1.424l-.02.02c-.028.03-.075.08-.099.09-.045-.028-.098-.189-.096-.273v-.007L7.59 1.01c0-.01 0-.02-.002-.029-.038-.27-.11-.542-.547-.626A.222.222 0 006.998.35h-1.74c-.326 0-.5.147-.638.306-.04.047-.147.17-.093.321.055.153.22.183.273.193.19.036.288.14.318.342.06.39.067.808.023 1.314-.012.136-.035.24-.072.325a.247.247 0 01-.026.047.256.256 0 01-.047-.026c-.133-.09-.233-.228-.33-.363A8.843 8.843 0 013.669.996c-.117-.28-.336-.437-.617-.441a42.42 42.42 0 00-1.514 0c-.228.005-.387.075-.475.21-.087.135-.084.308.01.512.67 1.464 1.279 2.528 1.973 3.452.489.65.981 1.102 1.549 1.42.596.336 1.27.5 2.05.5.088 0 .179-.002.27-.006.482-.022.678-.21.699-.67.012-.244.04-.44.135-.612.027-.048.057-.08.081-.086.025-.006.07.009.12.04.091.059.17.138.235.207l.195.213c.137.15.277.305.425.453.334.334.719.487 1.145.455h1.544a.516.516 0 00.419-.263.657.657 0 00-.005-.636 3.195 3.195 0 00-.397-.563zm.02.988c-.02.037-.047.044-.06.045H9.923c-.301.025-.557-.079-.805-.327-.14-.14-.278-.291-.411-.437l-.199-.217a1.657 1.657 0 00-.32-.277c-.198-.127-.362-.123-.465-.097a.567.567 0 00-.358.296c-.144.258-.176.536-.189.799-.007.16-.035.203-.046.213-.016.015-.066.04-.235.047-.812.037-1.493-.105-2.083-.437C4.3 5.488 3.85 5.074 3.4 4.474c-.676-.899-1.27-1.939-1.926-3.373A.36.36 0 011.439 1a.38.38 0 01.107-.013c.478-.01.968-.01 1.499 0 .073 0 .155.022.218.172A9.262 9.262 0 004.308 3.06c.108.15.243.336.44.47.182.121.33.115.42.089.092-.026.22-.1.305-.298.055-.129.088-.273.105-.455a5.834 5.834 0 00-.027-1.416c-.046-.304-.205-.523-.457-.635A.348.348 0 015.259.78h1.716c.097.021.116.046.122.055a.5.5 0 01.054.19l.001 1.878c-.004.18.085.58.389.69l.007.002c.277.088.46-.103.558-.206l.017-.018c.462-.482.773-1.044 1.016-1.53.127-.25.234-.51.325-.734.045-.112.086-.13.185-.129h.004l1.674.002c.039 0 .08 0 .11.006.08.013.113.03.124.036a.338.338 0 01-.023.123c-.122.375-.356.694-.604 1.032l-.03.04c-.13.175-.265.352-.397.522-.152.197-.31.4-.458.606-.318.436-.29.725.107 1.105.094.09.19.18.283.266.264.246.513.477.736.739.116.138.248.303.344.486.05.095.038.182.012.226z"/></mask><path d="M11.511 5.18c-.239-.28-.51-.532-.77-.775a25.222 25.222 0 01-.28-.262c-.122-.118-.183-.201-.189-.263-.006-.061.036-.151.133-.284.146-.2.3-.401.45-.596.134-.172.272-.35.404-.53l.03-.04c.257-.35.524-.713.667-1.154.04-.126.083-.314-.02-.478-.102-.164-.291-.213-.425-.235a1.092 1.092 0 00-.184-.012L9.655.549c-.289-.005-.49.13-.599.4-.087.216-.19.466-.31.703-.229.458-.52.985-.941 1.424l-.02.02c-.028.03-.075.08-.099.09-.045-.028-.098-.189-.096-.273v-.007L7.59 1.01c0-.01 0-.02-.002-.029-.038-.27-.11-.542-.547-.626A.222.222 0 006.998.35h-1.74c-.326 0-.5.147-.638.306-.04.047-.147.17-.093.321.055.153.22.183.273.193.19.036.288.14.318.342.06.39.067.808.023 1.314-.012.136-.035.24-.072.325a.247.247 0 01-.026.047.256.256 0 01-.047-.026c-.133-.09-.233-.228-.33-.363A8.843 8.843 0 013.669.996c-.117-.28-.336-.437-.617-.441a42.42 42.42 0 00-1.514 0c-.228.005-.387.075-.475.21-.087.135-.084.308.01.512.67 1.464 1.279 2.528 1.973 3.452.489.65.981 1.102 1.549 1.42.596.336 1.27.5 2.05.5.088 0 .179-.002.27-.006.482-.022.678-.21.699-.67.012-.244.04-.44.135-.612.027-.048.057-.08.081-.086.025-.006.07.009.12.04.091.059.17.138.235.207l.195.213c.137.15.277.305.425.453.334.334.719.487 1.145.455h1.544a.516.516 0 00.419-.263.657.657 0 00-.005-.636 3.195 3.195 0 00-.397-.563zm.02.988c-.02.037-.047.044-.06.045H9.923c-.301.025-.557-.079-.805-.327-.14-.14-.278-.291-.411-.437l-.199-.217a1.657 1.657 0 00-.32-.277c-.198-.127-.362-.123-.465-.097a.567.567 0 00-.358.296c-.144.258-.176.536-.189.799-.007.16-.035.203-.046.213-.016.015-.066.04-.235.047-.812.037-1.493-.105-2.083-.437C4.3 5.488 3.85 5.074 3.4 4.474c-.676-.899-1.27-1.939-1.926-3.373A.36.36 0 011.439 1a.38.38 0 01.107-.013c.478-.01.968-.01 1.499 0 .073 0 .155.022.218.172A9.262 9.262 0 004.308 3.06c.108.15.243.336.44.47.182.121.33.115.42.089.092-.026.22-.1.305-.298.055-.129.088-.273.105-.455a5.834 5.834 0 00-.027-1.416c-.046-.304-.205-.523-.457-.635A.348.348 0 015.259.78h1.716c.097.021.116.046.122.055a.5.5 0 01.054.19l.001 1.878c-.004.18.085.58.389.69l.007.002c.277.088.46-.103.558-.206l.017-.018c.462-.482.773-1.044 1.016-1.53.127-.25.234-.51.325-.734.045-.112.086-.13.185-.129h.004l1.674.002c.039 0 .08 0 .11.006.08.013.113.03.124.036a.338.338 0 01-.023.123c-.122.375-.356.694-.604 1.032l-.03.04c-.13.175-.265.352-.397.522-.152.197-.31.4-.458.606-.318.436-.29.725.107 1.105.094.09.19.18.283.266.264.246.513.477.736.739.116.138.248.303.344.486.05.095.038.182.012.226z" fill="#000"/><path d="M11.511 5.18c-.239-.28-.51-.532-.77-.775a25.222 25.222 0 01-.28-.262s0 0 0 0c-.122-.118-.183-.201-.189-.263-.006-.061.036-.151.133-.284.146-.2.3-.401.45-.596.134-.172.272-.35.404-.53l.03-.04c.257-.35.524-.713.667-1.154.04-.126.083-.314-.02-.478-.102-.164-.291-.213-.425-.235a1.092 1.092 0 00-.184-.012L9.655.549c-.289-.005-.49.13-.599.4-.087.216-.19.466-.31.703-.229.458-.52.985-.941 1.424l-.02.02c-.028.03-.075.08-.099.09-.045-.028-.098-.189-.096-.273v-.007L7.59 1.01c0-.01 0-.02-.002-.029-.038-.27-.11-.542-.547-.626A.222.222 0 006.998.35h-1.74c-.326 0-.5.147-.638.306-.04.047-.147.17-.093.321.055.153.22.183.273.193.19.036.288.14.318.342.06.39.067.808.023 1.314-.012.136-.035.24-.072.325a.247.247 0 01-.026.047.256.256 0 01-.047-.026c-.133-.09-.233-.228-.33-.363A8.843 8.843 0 013.669.996c-.117-.28-.336-.437-.617-.441a42.42 42.42 0 00-1.514 0c-.228.005-.387.075-.475.21-.087.135-.084.308.01.512.67 1.464 1.279 2.528 1.973 3.452.489.65.981 1.102 1.549 1.42.596.336 1.27.5 2.05.5.088 0 .179-.002.27-.006.482-.022.678-.21.699-.67.012-.244.04-.44.135-.612.027-.048.057-.08.081-.086.025-.006.07.009.12.04.091.059.17.138.235.207l.195.213c.137.15.277.305.425.453.334.334.719.487 1.145.455h1.53s0 0 0 0h.014a.516.516 0 00.419-.263.657.657 0 00-.005-.636 3.195 3.195 0 00-.397-.563zm.02.988c-.02.037-.047.044-.06.045H9.94s0 0 0 0h-.018c-.301.025-.557-.079-.805-.327-.14-.14-.278-.291-.411-.437l-.199-.217a1.657 1.657 0 00-.32-.277c-.198-.127-.362-.123-.465-.097a.567.567 0 00-.358.296c-.144.258-.176.536-.189.799-.007.16-.035.203-.046.213-.016.015-.066.04-.235.047-.812.037-1.493-.105-2.083-.437C4.3 5.488 3.85 5.074 3.4 4.474c-.676-.899-1.27-1.939-1.926-3.373A.36.36 0 011.439 1a.38.38 0 01.107-.013c.478-.01.968-.01 1.499 0 .073 0 .155.022.218.172A9.262 9.262 0 004.308 3.06c.108.15.243.336.44.47.182.121.33.115.42.089.092-.026.22-.1.305-.298.055-.129.088-.273.105-.455a5.834 5.834 0 00-.027-1.416c-.046-.304-.205-.523-.457-.635A.348.348 0 015.259.78h1.716c.097.021.116.046.122.055a.5.5 0 01.054.19l.001 1.878c-.004.18.085.58.389.69l.007.002c.277.088.46-.103.558-.206l.017-.018c.462-.482.773-1.044 1.016-1.53.127-.25.234-.51.325-.734.045-.112.086-.13.185-.129h.004l1.674.002c.039 0 .08 0 .11.006.08.013.113.03.124.036a.338.338 0 01-.023.123c-.122.375-.356.694-.604 1.032l-.03.04c-.13.175-.265.352-.397.522-.152.197-.31.4-.458.606-.318.436-.29.725.107 1.105.094.09.19.18.283.266.264.246.513.477.736.739.116.138.248.303.344.486.05.095.038.182.012.226z" stroke="#000" stroke-width=".4" mask="url(#ha)"/></svg><svg fill="none" viewBox="0 0 20 20" id="wapp" xmlns="http://www.w3.org/2000/svg"><path d="M2.533 15.6l.447.224.138-.276-.185-.248-.4.3zm1.866 1.867l.3-.4-.247-.186-.276.139.223.447zM.667 19.333l-.448-.223a.5.5 0 00.671.67l-.223-.447zM6 6l-.278-.416A.5.5 0 005.5 6H6zm8 8v.5a.5.5 0 00.416-.223L14 14zM8.339 6.7l.493-.081-.493.082zm.186 1.116l-.493.083.493-.083zm-.576 1.329l.278.416-.278-.416zm5.35 2.516l.082-.493-.082.493zm-1.115-.186l-.083.493.083-.493zm-1.329.576l-.416-.278.416.278zM.167 10c0 2.213.731 4.256 1.966 5.9l.8-.6A8.792 8.792 0 011.167 10h-1zM10 .166C4.569.167.167 4.569.167 10h1A8.833 8.833 0 0110 1.167v-1zM19.833 10c0-5.43-4.402-9.833-9.833-9.833v1A8.833 8.833 0 0118.833 10h1zM10 19.833c5.43 0 9.833-4.402 9.833-9.833h-1A8.833 8.833 0 0110 18.833v1zm-5.901-1.966a9.792 9.792 0 005.9 1.966v-1a8.792 8.792 0 01-5.3-1.766l-.6.8zM.89 19.78l3.733-1.867-.447-.894-3.733 1.866.447.895zm1.196-4.404L.219 19.11l.895.447 1.866-3.733-.894-.447zM5.5 6v1.333h1V6h-1zm7.166 8.5H14v-1h-1.334v1zM5.5 7.333a7.167 7.167 0 007.166 7.167v-1A6.167 6.167 0 016.5 7.333h-1zm.777-.917l.284-.19-.554-.831-.285.19.555.831zm1.569.367l.186 1.116.986-.165-.186-1.115-.986.164zm-.174 1.946l-1.283.855.555.832 1.283-.855-.555-.832zm.36-.83a.833.833 0 01-.36.83l.555.832c.6-.4.91-1.115.791-1.827l-.986.165zm-1.47-1.672a.833.833 0 011.284.556l.986-.164a1.833 1.833 0 00-2.825-1.224l.554.832zm7.854 8.05l.19-.284-.833-.555-.19.285.833.554zm-1.035-3.11l-1.115-.185-.165.986 1.116.186.164-.986zm-2.942.606l-.855 1.283.832.555.855-1.283-.832-.555zm1.827-.791a1.833 1.833 0 00-1.827.791l.832.555a.833.833 0 01.83-.36l.165-.986zm2.34 3.011a1.833 1.833 0 00-1.225-2.825l-.164.986c.596.1.892.781.556 1.284l.832.555z" fill="#000"/></svg></svg>